<?xml version="1.0" encoding="UTF-8" standalone="no"?>
<svg
   height="48"
   viewBox="0 -960 1920 1920"
   width="48"
   fill="#e8eaed"
   version="1.1"
   id="svg4"
   sodipodi:docname="game_character.svg"
   inkscape:version="1.2.2 (732a01da63, 2022-12-09)"
   inkscape:export-filename="game_character.png"
   inkscape:export-xdpi="96"
   inkscape:export-ydpi="96"
   xmlns:inkscape="http://www.inkscape.org/namespaces/inkscape"
   xmlns:sodipodi="http://sodipodi.sourceforge.net/DTD/sodipodi-0.dtd"
   xmlns="http://www.w3.org/2000/svg"
   xmlns:svg="http://www.w3.org/2000/svg">
  <defs
     id="defs8" />
  <sodipodi:namedview
     id="namedview6"
     pagecolor="#ffffff"
     bordercolor="#111111"
     borderopacity="1"
     inkscape:showpageshadow="0"
     inkscape:pageopacity="0"
     inkscape:pagecheckerboard="1"
     inkscape:deskcolor="#d1d1d1"
     showgrid="false"
     inkscape:zoom="4.9166667"
     inkscape:cx="10.677966"
     inkscape:cy="27.661017"
     inkscape:window-width="1008"
     inkscape:window-height="481"
     inkscape:window-x="0"
     inkscape:window-y="50"
     inkscape:window-maximized="0"
     inkscape:current-layer="svg4" />
  <path
     d="m 960,0 q -132,0 -226,-94 -94,-94 -94,-226 0,-132 94,-226 94,-94 226,-94 132,0 226,94 94,94 94,226 0,132 -94,226 Q 1092,0 960,0 Z M 320,480 v -64 q 0,-68 35,-125 35,-57 93,-87 124,-62 252,-93 128,-31 260,-31 132,0 260,31 128,31 252,93 58,30 93,87 35,57 35,125 v 64 q 0,66 -47,113 -47,47 -113,47 H 480 q -66,0 -113,-47 -47,-47 -47,-113 z m 160,0 h 960 v -64 q 0,-22 -11,-40 -11,-18 -29,-28 -108,-54 -218,-81 -110,-27 -222,-27 -112,0 -222,27 -110,27 -218,81 -18,10 -29,28 -11,18 -11,40 z m 480,-640 q 66,0 113,-47 47,-47 47,-113 0,-66 -47,-113 -47,-47 -113,-47 -66,0 -113,47 -47,47 -47,113 0,66 47,113 47,47 113,47 z m 0,-160 z m 0,800 z"
     id="path2"
     style="stroke-width:2;fill:#dfdfdf;fill-opacity:1" />
</svg>
