<?xml version="1.0" encoding="UTF-8" standalone="no"?>
<svg
   height="24px"
   viewBox="0 -960 960 960"
   width="24px"
   fill="#202020"
   version="1.1"
   id="svg4"
   sodipodi:docname="raindrop.svg"
   inkscape:export-filename="raindrop.png"
   inkscape:export-xdpi="96"
   inkscape:export-ydpi="96"
   inkscape:version="1.2.2 (732a01da63, 2022-12-09)"
   xmlns:inkscape="http://www.inkscape.org/namespaces/inkscape"
   xmlns:sodipodi="http://sodipodi.sourceforge.net/DTD/sodipodi-0.dtd"
   xmlns="http://www.w3.org/2000/svg"
   xmlns:svg="http://www.w3.org/2000/svg">
  <defs
     id="defs8" />
  <sodipodi:namedview
     id="namedview6"
     pagecolor="#ffffff"
     bordercolor="#111111"
     borderopacity="1"
     inkscape:showpageshadow="0"
     inkscape:pageopacity="0"
     inkscape:pagecheckerboard="1"
     inkscape:deskcolor="#d1d1d1"
     showgrid="false"
     showborder="false"
     inkscape:zoom="11.145833"
     inkscape:cx="5.2485981"
     inkscape:cy="18.392523"
     inkscape:current-layer="svg4" />
  <path
     d="M480-80q-137 0-228.5-94T160-408q0-62 28-124t70-119q42-57 91-107t91-87q8-8 18.5-11.5T480-860q11 0 21.5 3.5T520-845q42 37 91 87t91 107q42 57 70 119t28 124q0 140-91.5 234T480-80Zm11-120q12-1 20.5-9.5T520-230q0-14-9-22.5t-23-7.5q-41 3-87-22.5T343-375q-2-11-10.5-18t-19.5-7q-14 0-23 10.5t-6 24.5q17 91 80 130t127 35Z"
     id="path2" />
</svg>
