<?xml version="1.0" encoding="UTF-8" standalone="no"?>
<svg
   height="48"
   viewBox="0 -960 1920 1920"
   width="48"
   fill="#202020"
   version="1.1"
   id="svg4"
   sodipodi:docname="sideway_shooter.svg"
   inkscape:version="1.2.2 (732a01da63, 2022-12-09)"
   inkscape:export-filename="sideway_shooter.png"
   inkscape:export-xdpi="96"
   inkscape:export-ydpi="96"
   xmlns:inkscape="http://www.inkscape.org/namespaces/inkscape"
   xmlns:sodipodi="http://sodipodi.sourceforge.net/DTD/sodipodi-0.dtd"
   xmlns="http://www.w3.org/2000/svg"
   xmlns:svg="http://www.w3.org/2000/svg">
  <defs
     id="defs8" />
  <sodipodi:namedview
     id="namedview6"
     pagecolor="#ffffff"
     bordercolor="#111111"
     borderopacity="1"
     inkscape:showpageshadow="0"
     inkscape:pageopacity="0"
     inkscape:pagecheckerboard="1"
     inkscape:deskcolor="#d1d1d1"
     showgrid="false"
     inkscape:zoom="2.4583333"
     inkscape:cx="-22.983051"
     inkscape:cy="1.6271187"
     inkscape:window-width="1008"
     inkscape:window-height="481"
     inkscape:window-x="0"
     inkscape:window-y="100"
     inkscape:window-maximized="0"
     inkscape:current-layer="svg4" />
  <path
     d="m 353.04,-386.4 q 69.6,-24 141.6,-44.4 72,-20.4 144,-32.4 L 561.84,-576 h -285.6 z m 1284,352.8 q -122.4,-115.2 -322.8,-184.8 -200.4,-69.6 -421.2,-69.6 -144,0 -282,26.4 -138,26.4 -234,69.6 v 384 q 96,43.2 234,69.6 138,26.4 282,26.4 220.8,0 421.2,-69.6 200.4,-69.6 322.8,-184.8 7.2,-7.2 10.8,-15.6 3.6,-8.4 3.6,-18 0,-9.6 -3.6,-18 -3.6,-8.4 -10.8,-15.6 z M 857.04,0 q 0,-79.2 56.4,-135.6 56.4,-56.4 135.6,-56.4 79.2,0 135.6,56.4 56.4,56.4 56.4,135.6 0,79.2 -56.4,135.6 -56.4,56.4 -135.6,56.4 -79.2,0 -135.6,-56.4 Q 857.04,79.2 857.04,0 Z m -504,386.4 -76.8,189.6 h 285.6 l 76.8,-112.8 q -72,-12 -144,-32.4 -72,-20.4 -141.6,-44.4 z m 1502.4,-312 q -172.8,201.6 -424.8,303.6 -252,102 -573.6,102 l -134.4,201.6 q -26.4,40.8 -69.6,63.6 -43.2,22.8 -91.2,22.8 h -427.2 q -50.4,0 -79.2,-42 -28.8,-42 -9.6,-90 L 185.04,290.4 V -290.4 L 45.84,-636 q -19.2,-48 9.6,-90 28.8,-42 79.2,-42 h 427.2 q 48,0 91.2,22.8 43.2,22.8 69.6,63.6 l 134.4,201.6 q 321.6,0 573.6,102 252,102 424.8,303.6 12,16.8 19.2,36 7.2,19.2 7.2,38.4 0,19.2 -7.2,38.4 -7.2,19.2 -19.2,36 z"
     id="path2"
     style="stroke-width:2.4" />
</svg>
