<?xml version="1.0" encoding="UTF-8" standalone="no"?>
<svg
   height="24px"
   viewBox="0 -960 960 960"
   width="24px"
   fill="#202020"
   version="1.1"
   id="svg135"
   sodipodi:docname="sideways_bug.svg"
   inkscape:export-filename="RTL_bug.png"
   inkscape:export-xdpi="96"
   inkscape:export-ydpi="96"
   inkscape:version="1.2.2 (732a01da63, 2022-12-09)"
   xmlns:inkscape="http://www.inkscape.org/namespaces/inkscape"
   xmlns:sodipodi="http://sodipodi.sourceforge.net/DTD/sodipodi-0.dtd"
   xmlns="http://www.w3.org/2000/svg"
   xmlns:svg="http://www.w3.org/2000/svg">
  <defs
     id="defs139" />
  <sodipodi:namedview
     id="namedview137"
     pagecolor="#ffffff"
     bordercolor="#111111"
     borderopacity="1"
     inkscape:showpageshadow="false"
     inkscape:pageopacity="0"
     inkscape:pagecheckerboard="1"
     inkscape:deskcolor="#d1d1d1"
     showgrid="false"
     showborder="false"
     inkscape:zoom="15.980142"
     inkscape:cx="14.705751"
     inkscape:cy="12.014912"
     inkscape:current-layer="svg135" />
  <path
     d="m 959.99776,-472 q 0,-88.63595 -43.63616,-164.31741 -43.63616,-75.68147 -119.99944,-119.31763 v -98.18136 q 0,-23.18171 -15.68174,-38.86346 -15.68175,-15.68174 -38.86346,-15.68174 -23.18171,0 -38.86345,15.68174 -15.68175,15.68175 -15.68175,38.86346 v 59.99972 q -27.2726,-4.09089 -54.5452,-4.7727 -27.2726,-0.68182 -54.5452,-0.68182 v -54.5452 q 0,-23.18171 -15.68174,-38.86346 -15.68175,-15.68174 -38.86346,-15.68174 -23.18171,0 -38.86345,15.68174 -15.68175,15.68175 -15.68175,38.86346 v 54.5452 q -27.2726,0 -54.5452,0.68182 -27.2726,0.68181 -54.5452,4.7727 v -59.99972 q 0,-23.18171 -15.68174,-38.86346 -15.68175,-15.68174 -38.86346,-15.68174 -23.18171,0 -38.86346,15.68174 -15.68174,15.68175 -15.68174,38.86346 v 98.18136 q -31.36349,19.09082 -58.63609,42.95434 -27.2726,23.86353 -47.72705,55.22702 l -51.81794,-50.45431 q -14.99993,-14.99993 -37.499825,-14.99993 -22.499895,0 -38.863455,16.36356 -14.99993,14.99993 -14.99993,38.18164 0,23.18171 14.99993,38.18164 l 79.09054,79.09054 q -12.27267,38.18164 -12.27267,77.72691 0,39.54527 12.27267,77.72691 l -80.45417,81.8178 q -14.99993,14.99993 -14.99993,37.49983 0,22.49989 16.36356,38.86345 14.99993,14.99993 38.18164,14.99993 23.18171,0 38.18164,-14.99993 l 51.81794,-51.81794 q 20.45445,31.36349 47.04523,56.59065 26.59079,25.22715 59.31791,44.31797 v 98.18136 q 0,23.18171 15.68174,38.863455 15.68175,15.681745 38.86346,15.681745 23.18171,0 38.86346,-15.681745 15.68174,-15.681745 15.68174,-38.863455 v -59.99972 q 27.2726,4.09089 54.5452,4.77271 27.2726,0.68181 54.5452,0.68181 v 54.5452 q 0,23.18171 15.68175,38.863455 15.68174,15.681745 38.86345,15.681745 23.18171,0 38.86346,-15.681745 15.68174,-15.681745 15.68174,-38.863455 v -54.5452 q 27.2726,0 54.5452,-0.68181 27.2726,-0.68182 54.5452,-4.77271 v 59.99972 q 0,23.18171 15.68175,38.863455 15.68174,15.681745 38.86345,15.681745 23.18171,0 38.86346,-15.681745 15.68174,-15.681745 15.68174,-38.863455 v -98.18136 Q 872.72544,-232.00112 916.3616,-307.68259 959.99776,-383.36405 959.99776,-472 Z m -109.0904,0 q 0,89.99958 -64.09061,154.09019 -64.09061,64.09061 -154.09019,64.09061 h -218.1808 q -89.99958,0 -154.09019,-64.09061 Q 196.36496,-382.00042 196.36496,-472 q 0,-89.99958 64.09061,-154.09019 64.09061,-64.09061 154.09019,-64.09061 h 218.1808 q 89.99958,0 154.09019,64.09061 64.09061,64.09061 64.09061,154.09019 z m -163.6356,-54.5452 v 109.0904 q 0,23.18171 -15.68175,38.86346 -15.68174,15.68174 -38.86345,15.68174 -23.18171,0 -38.86345,-15.68174 -15.68175,-15.68175 -15.68175,-38.86346 v -109.0904 q 0,-23.18171 15.68175,-38.86346 15.68174,-15.68174 38.86345,-15.68174 23.18171,0 38.86345,15.68174 15.68175,15.68175 15.68175,38.86346 z m -218.1808,0 v 109.0904 q 0,23.18171 -15.68174,38.86346 -15.68175,15.68174 -38.86346,15.68174 -23.18171,0 -38.86346,-15.68174 -15.68174,-15.68175 -15.68174,-38.86346 v -109.0904 q 0,-23.18171 15.68174,-38.86346 15.68175,-15.68174 38.86346,-15.68174 23.18171,0 38.86346,15.68174 15.68174,15.68175 15.68174,38.86346 z M 523.63616,-472 Z"
     id="path133"
     style="stroke-width:1.36363" />
</svg>
